<svg width="40" height="42" viewBox="0 0 40 42" fill="none" xmlns="http://www.w3.org/2000/svg">
<path fill-rule="evenodd" clip-rule="evenodd" d="M18.8667 10.808H8.33333C6.49167 10.808 5 12.4688 5 14.5145V33.0435C5 35.091 6.49167 36.75 8.33333 36.75H26.6667C28.5083 36.75 30 35.091 30 33.0435V19.481L23.4767 26.733C22.907 27.3726 22.1651 27.8146 21.35 28L16.8817 28.994C13.965 29.6415 11.395 26.7838 11.9783 23.5428L12.8717 18.5745C13.0333 17.6785 13.43 16.8543 14.0117 16.2085L18.8667 10.808Z" fill="#0FA958"/>
<path fill-rule="evenodd" clip-rule="evenodd" d="M33.0767 7.5565C32.9082 7.10855 32.6611 6.69778 32.3484 6.3455C32.0408 6.00098 31.67 5.72536 31.2584 5.53525C30.8528 5.34824 30.4147 5.25168 29.9717 5.25168C29.5287 5.25168 29.0906 5.34824 28.685 5.53525C28.2734 5.72536 27.9026 6.00098 27.595 6.3455L26.685 7.357L31.4384 12.642L32.3484 11.6288C32.6644 11.2791 32.9119 10.8677 33.0767 10.4178C33.42 9.49807 33.42 8.47618 33.0767 7.5565ZM29.0834 15.2618L24.3284 9.975L16.3667 18.83C16.2492 18.9614 16.17 19.1254 16.1384 19.3025L15.245 24.2725C15.1284 24.92 15.6434 25.4905 16.225 25.361L20.695 24.3688C20.8577 24.3307 21.0057 24.2423 21.12 24.115L29.0834 15.2618Z" fill="#0FA958"/>
</svg>
