<svg width="41" height="42" viewBox="0 0 41 42" fill="none" xmlns="http://www.w3.org/2000/svg">
<path d="M20.9319 7.20688C28.0221 7.20688 33.8469 12.6308 34.831 19.6756H39.0088L31.9789 27.9881L24.949 19.6756H29.6088C29.1592 17.6415 28.0564 15.8252 26.4805 14.5231C24.9046 13.221 22.9487 12.51 20.9319 12.5061C18.0195 12.5061 15.4486 13.9816 13.8217 16.2052L10.3871 12.1528C11.7021 10.598 13.3234 9.35222 15.1422 8.49916C16.9609 7.6461 18.935 7.20548 20.9319 7.20688ZM20.1285 35.1369C13.0584 35.1369 7.21359 29.713 6.2294 22.6681H2.05164L9.08153 14.3556C11.4315 17.1195 13.7614 19.9042 16.1114 22.6681H11.4516C11.9013 24.7022 13.0041 26.5185 14.5799 27.8207C16.1558 29.1228 18.1118 29.8338 20.1285 29.8377C23.0409 29.8377 25.6118 28.3622 27.2388 26.1386L30.6734 30.1909C29.36 31.7479 27.739 32.9951 25.9199 33.8483C24.1008 34.7016 22.1258 35.141 20.1285 35.1369Z" fill="#699BF7"/>
</svg>
