<svg width="60" height="60" viewBox="0 0 60 60" fill="none" xmlns="http://www.w3.org/2000/svg">
<path opacity="0.16" d="M10 45C10 42.3478 11.0536 39.8043 12.9289 37.9289C14.8043 36.0536 17.3478 35 20 35H40C42.6522 35 45.1957 36.0536 47.0711 37.9289C48.9464 39.8043 50 42.3478 50 45C50 46.3261 49.4732 47.5979 48.5355 48.5355C47.5979 49.4732 46.3261 50 45 50H15C13.6739 50 12.4021 49.4732 11.4645 48.5355C10.5268 47.5979 10 46.3261 10 45Z" fill="#2367CE"/>
<path d="M10 45C10 42.3478 11.0536 39.8043 12.9289 37.9289C14.8043 36.0536 17.3478 35 20 35H40C42.6522 35 45.1957 36.0536 47.0711 37.9289C48.9464 39.8043 50 42.3478 50 45C50 46.3261 49.4732 47.5979 48.5355 48.5355C47.5979 49.4732 46.3261 50 45 50H15C13.6739 50 12.4021 49.4732 11.4645 48.5355C10.5268 47.5979 10 46.3261 10 45Z" stroke="#2367CE" stroke-width="5" stroke-linejoin="round"/>
<path d="M30 25C34.1421 25 37.5 21.6421 37.5 17.5C37.5 13.3579 34.1421 10 30 10C25.8579 10 22.5 13.3579 22.5 17.5C22.5 21.6421 25.8579 25 30 25Z" stroke="#2367CE" stroke-width="5"/>
</svg>
