<svg width="40" height="42" viewBox="0 0 40 42" fill="none" xmlns="http://www.w3.org/2000/svg">
<path d="M9.99998 33.25C9.99998 35.175 11.5 36.75 13.3333 36.75H26.6666C28.5 36.75 30 35.175 30 33.25V15.75C30 13.825 28.5 12.25 26.6666 12.25H13.3333C11.5 12.25 9.99998 13.825 9.99998 15.75V33.25ZM30 7H25.8333L24.65 5.7575C24.35 5.4425 23.9166 5.25 23.4833 5.25H16.5166C16.0833 5.25 15.65 5.4425 15.35 5.7575L14.1666 7H9.99998C9.08331 7 8.33331 7.7875 8.33331 8.75C8.33331 9.7125 9.08331 10.5 9.99998 10.5H30C30.9166 10.5 31.6666 9.7125 31.6666 8.75C31.6666 7.7875 30.9166 7 30 7Z" fill="#F24E1E"/>
</svg>
